<svg width="779" height="288" viewBox="0 0 779 288" fill="none" xmlns="http://www.w3.org/2000/svg">
<g clip-path="url(#clip0_2_13)">
<g filter="url(#filter0_d_2_13)">
<path d="M121.211 10.3086C126.616 7.04417 133.384 7.04417 138.789 10.3086L234.372 68.0407C239.469 71.1188 242.583 76.6386 242.583 82.5923V199.408C242.583 205.361 239.469 210.881 234.372 213.959L138.789 271.691C133.384 274.956 126.616 274.956 121.211 271.691L25.6275 213.959C20.5313 210.881 17.4167 205.361 17.4167 199.408V82.5923C17.4167 76.6386 20.5313 71.1188 25.6275 68.0407L121.211 10.3086Z" fill="white"/>
</g>
<circle cx="130" cy="75" r="22" fill="#0747A6"/>
<path d="M214 105.518C214 103.967 212.31 103.006 210.977 103.799L138.695 146.824C133.337 150.014 126.663 150.014 121.305 146.824L49.023 103.799C47.6898 103.006 46 103.967 46 105.518V138.452C46 141.272 47.4848 143.884 49.9081 145.326L121.305 187.824C126.663 191.014 133.337 191.014 138.695 187.824L210.092 145.326C212.515 143.884 214 141.272 214 138.452V105.518Z" fill="#0747A6"/>
<path d="M214 155.498C214 153.951 212.319 152.99 210.985 153.775L138.624 196.373C133.302 199.507 126.698 199.507 121.376 196.373L49.0146 153.775C47.6814 152.99 46 153.951 46 155.498V187.976C46 190.81 47.4993 193.432 49.9415 194.87L121.376 236.923C126.698 240.056 133.302 240.056 138.624 236.923L210.059 194.87C212.501 193.432 214 190.81 214 187.976V155.498Z" fill="#0747A6"/>
<g filter="url(#filter1_d_2_13)">
<path d="M727.718 161.37L727.682 145.386H729.803L749.993 122.818H765.465L740.63 150.47H737.887L727.718 161.37ZM715.648 179V104.091H728.889V179H715.648ZM750.908 179L732.62 153.433L741.544 144.106L766.746 179H750.908Z" fill="white"/>
</g>
<g filter="url(#filter2_d_2_13)">
<path d="M680.708 180.097C675.1 180.097 670.284 178.866 666.26 176.403C662.261 173.94 659.177 170.539 657.006 166.198C654.861 161.833 653.788 156.81 653.788 151.129C653.788 145.423 654.885 140.387 657.08 136.022C659.274 131.633 662.371 128.219 666.37 125.781C670.393 123.318 675.148 122.087 680.635 122.087C685.195 122.087 689.23 122.928 692.742 124.61C696.278 126.269 699.094 128.622 701.191 131.67C703.288 134.693 704.483 138.229 704.776 142.277H692.12C691.608 139.57 690.389 137.315 688.462 135.51C686.56 133.681 684.012 132.767 680.818 132.767C678.111 132.767 675.734 133.499 673.685 134.962C671.637 136.4 670.04 138.473 668.894 141.18C667.772 143.886 667.211 147.129 667.211 150.909C667.211 154.737 667.772 158.029 668.894 160.785C670.015 163.516 671.588 165.625 673.612 167.113C675.66 168.576 678.062 169.307 680.818 169.307C682.769 169.307 684.512 168.941 686.048 168.21C687.609 167.454 688.913 166.369 689.962 164.955C691.011 163.54 691.73 161.821 692.12 159.797H704.776C704.459 163.772 703.288 167.295 701.264 170.368C699.24 173.416 696.485 175.806 692.998 177.537C689.511 179.244 685.414 180.097 680.708 180.097Z" fill="white"/>
</g>
<g filter="url(#filter3_d_2_13)">
<path d="M613.224 180.134C609.664 180.134 606.457 179.5 603.604 178.232C600.776 176.94 598.532 175.038 596.874 172.526C595.241 170.014 594.424 166.917 594.424 163.235C594.424 160.065 595.009 157.444 596.179 155.371C597.35 153.299 598.947 151.641 600.971 150.397C602.995 149.153 605.275 148.215 607.811 147.581C610.371 146.922 613.017 146.447 615.748 146.154C619.04 145.813 621.71 145.508 623.758 145.24C625.806 144.947 627.294 144.508 628.221 143.923C629.172 143.313 629.647 142.375 629.647 141.107V140.887C629.647 138.132 628.83 135.998 627.196 134.486C625.563 132.974 623.21 132.218 620.137 132.218C616.894 132.218 614.321 132.926 612.419 134.34C610.542 135.754 609.274 137.424 608.615 139.351L596.252 137.595C597.228 134.181 598.837 131.328 601.081 129.036C603.324 126.72 606.067 124.988 609.31 123.842C612.553 122.672 616.138 122.087 620.064 122.087C622.771 122.087 625.465 122.404 628.147 123.038C630.83 123.672 633.28 124.72 635.499 126.183C637.718 127.622 639.498 129.585 640.839 132.072C642.205 134.559 642.888 137.668 642.888 141.399V179H630.159V171.282H629.72C628.915 172.843 627.782 174.306 626.319 175.672C624.88 177.013 623.063 178.098 620.869 178.927C618.698 179.732 616.15 180.134 613.224 180.134ZM616.662 170.404C619.32 170.404 621.625 169.88 623.575 168.832C625.526 167.759 627.026 166.344 628.074 164.589C629.147 162.833 629.684 160.919 629.684 158.846V152.226C629.269 152.567 628.562 152.884 627.562 153.177C626.587 153.469 625.489 153.725 624.27 153.945C623.051 154.164 621.844 154.359 620.649 154.53C619.454 154.701 618.418 154.847 617.54 154.969C615.565 155.237 613.797 155.676 612.237 156.286C610.676 156.895 609.444 157.749 608.542 158.846C607.64 159.919 607.189 161.309 607.189 163.016C607.189 165.454 608.079 167.295 609.859 168.539C611.639 169.783 613.907 170.404 616.662 170.404Z" fill="white"/>
</g>
<g filter="url(#filter4_d_2_13)">
<path d="M532.682 200.068V122.818H545.703V132.109H546.472C547.154 130.743 548.118 129.292 549.361 127.756C550.605 126.195 552.287 124.866 554.409 123.769C556.53 122.647 559.237 122.087 562.529 122.087C566.869 122.087 570.783 123.196 574.27 125.415C577.781 127.61 580.561 130.865 582.609 135.181C584.682 139.473 585.718 144.74 585.718 150.982C585.718 157.152 584.706 162.394 582.682 166.71C580.659 171.026 577.903 174.318 574.416 176.586C570.929 178.854 566.979 179.988 562.565 179.988C559.347 179.988 556.676 179.451 554.555 178.378C552.434 177.305 550.727 176.013 549.434 174.501C548.166 172.965 547.179 171.514 546.472 170.148H545.923V200.068H532.682ZM545.667 150.909C545.667 154.542 546.179 157.725 547.203 160.456C548.252 163.187 549.751 165.32 551.702 166.857C553.677 168.368 556.067 169.124 558.871 169.124C561.797 169.124 564.248 168.344 566.223 166.783C568.198 165.198 569.686 163.04 570.685 160.309C571.709 157.554 572.222 154.42 572.222 150.909C572.222 147.422 571.722 144.325 570.722 141.619C569.722 138.912 568.235 136.79 566.26 135.254C564.284 133.718 561.822 132.95 558.871 132.95C556.042 132.95 553.641 133.694 551.665 135.181C549.69 136.669 548.191 138.753 547.167 141.436C546.167 144.118 545.667 147.276 545.667 150.909Z" fill="white"/>
</g>
<g filter="url(#filter5_d_2_13)">
<path d="M520.557 137.668L508.487 138.985C508.145 137.766 507.548 136.62 506.694 135.547C505.865 134.474 504.744 133.608 503.329 132.95C501.915 132.292 500.184 131.962 498.135 131.962C495.38 131.962 493.063 132.56 491.186 133.755C489.333 134.949 488.418 136.498 488.443 138.4C488.418 140.034 489.016 141.363 490.235 142.387C491.479 143.411 493.527 144.252 496.38 144.911L505.963 146.959C511.279 148.105 515.229 149.922 517.814 152.409C520.423 154.896 521.74 158.151 521.764 162.175C521.74 165.71 520.703 168.832 518.655 171.538C516.631 174.221 513.815 176.318 510.206 177.83C506.597 179.341 502.452 180.097 497.77 180.097C490.893 180.097 485.358 178.659 481.164 175.781C476.97 172.879 474.47 168.844 473.666 163.674L486.577 162.431C487.162 164.967 488.406 166.881 490.308 168.173C492.21 169.466 494.685 170.112 497.733 170.112C500.879 170.112 503.402 169.466 505.304 168.173C507.231 166.881 508.194 165.284 508.194 163.382C508.194 161.772 507.572 160.443 506.329 159.395C505.109 158.346 503.207 157.542 500.623 156.981L491.04 154.969C485.651 153.847 481.664 151.958 479.079 149.3C476.494 146.617 475.214 143.228 475.238 139.131C475.214 135.669 476.153 132.67 478.055 130.134C479.981 127.573 482.651 125.598 486.065 124.208C489.503 122.794 493.466 122.087 497.953 122.087C504.536 122.087 509.718 123.489 513.498 126.293C517.302 129.097 519.655 132.889 520.557 137.668Z" fill="white"/>
</g>
<g filter="url(#filter6_d_2_13)">
<path d="M433.175 180.134C429.615 180.134 426.409 179.5 423.556 178.232C420.727 176.94 418.484 175.038 416.825 172.526C415.192 170.014 414.375 166.917 414.375 163.235C414.375 160.065 414.96 157.444 416.131 155.371C417.301 153.299 418.898 151.641 420.922 150.397C422.946 149.153 425.226 148.215 427.762 147.581C430.322 146.922 432.968 146.447 435.699 146.154C438.991 145.813 441.661 145.508 443.709 145.24C445.758 144.947 447.245 144.508 448.172 143.923C449.123 143.313 449.598 142.375 449.598 141.107V140.887C449.598 138.132 448.781 135.998 447.148 134.486C445.514 132.974 443.161 132.218 440.088 132.218C436.845 132.218 434.273 132.926 432.371 134.34C430.493 135.754 429.225 137.424 428.567 139.351L416.204 137.595C417.179 134.181 418.788 131.328 421.032 129.036C423.275 126.72 426.018 124.988 429.262 123.842C432.505 122.672 436.089 122.087 440.015 122.087C442.722 122.087 445.416 122.404 448.099 123.038C450.781 123.672 453.231 124.72 455.45 126.183C457.669 127.622 459.45 129.585 460.791 132.072C462.156 134.559 462.839 137.668 462.839 141.399V179H450.11V171.282H449.671C448.867 172.843 447.733 174.306 446.27 175.672C444.831 177.013 443.014 178.098 440.82 178.927C438.65 179.732 436.101 180.134 433.175 180.134ZM436.613 170.404C439.271 170.404 441.576 169.88 443.526 168.832C445.477 167.759 446.977 166.344 448.025 164.589C449.098 162.833 449.635 160.919 449.635 158.846V152.226C449.22 152.567 448.513 152.884 447.513 153.177C446.538 153.469 445.441 153.725 444.221 153.945C443.002 154.164 441.795 154.359 440.6 154.53C439.405 154.701 438.369 154.847 437.491 154.969C435.516 155.237 433.748 155.676 432.188 156.286C430.627 156.895 429.396 157.749 428.493 158.846C427.591 159.919 427.14 161.309 427.14 163.016C427.14 165.454 428.03 167.295 429.81 168.539C431.59 169.783 433.858 170.404 436.613 170.404Z" fill="white"/>
</g>
<g filter="url(#filter7_d_2_13)">
<path d="M403.393 104.091V179H390.152V104.091H403.393Z" fill="white"/>
</g>
<g filter="url(#filter8_d_2_13)">
<path d="M377.871 122.818V133.06H345.574V122.818H377.871ZM353.548 109.358H366.789V162.102C366.789 163.882 367.057 165.247 367.593 166.198C368.154 167.125 368.886 167.759 369.788 168.1C370.69 168.442 371.69 168.612 372.787 168.612C373.616 168.612 374.372 168.551 375.055 168.429C375.762 168.307 376.298 168.198 376.664 168.1L378.895 178.451C378.188 178.695 377.176 178.963 375.86 179.256C374.567 179.549 372.982 179.719 371.105 179.768C367.788 179.866 364.801 179.366 362.143 178.268C359.485 177.147 357.376 175.415 355.816 173.075C354.279 170.734 353.523 167.808 353.548 164.296V109.358Z" fill="white"/>
</g>
<g filter="url(#filter9_d_2_13)">
<path d="M289.008 179H274.524L300.896 104.091H317.648L344.056 179H329.572L309.564 119.453H308.979L289.008 179ZM289.484 149.629H328.987V160.529H289.484V149.629Z" fill="white"/>
</g>
</g>
<defs>
<filter id="filter0_d_2_13" x="9.41669" y="0.860291" width="245.167" height="286.279" filterUnits="userSpaceOnUse" color-interpolation-filters="sRGB">
<feFlood flood-opacity="0" result="BackgroundImageFix"/>
<feColorMatrix in="SourceAlpha" type="matrix" values="0 0 0 0 0 0 0 0 0 0 0 0 0 0 0 0 0 0 127 0" result="hardAlpha"/>
<feOffset dx="2" dy="3"/>
<feGaussianBlur stdDeviation="5"/>
<feComposite in2="hardAlpha" operator="out"/>
<feColorMatrix type="matrix" values="0 0 0 0 0.027451 0 0 0 0 0.278431 0 0 0 0 0.65098 0 0 0 0.15 0"/>
<feBlend mode="normal" in2="BackgroundImageFix" result="effect1_dropShadow_2_13"/>
<feBlend mode="normal" in="SourceGraphic" in2="effect1_dropShadow_2_13" result="shape"/>
</filter>
<filter id="filter1_d_2_13" x="707.648" y="97.0909" width="71.0977" height="94.9091" filterUnits="userSpaceOnUse" color-interpolation-filters="sRGB">
<feFlood flood-opacity="0" result="BackgroundImageFix"/>
<feColorMatrix in="SourceAlpha" type="matrix" values="0 0 0 0 0 0 0 0 0 0 0 0 0 0 0 0 0 0 127 0" result="hardAlpha"/>
<feOffset dx="2" dy="3"/>
<feGaussianBlur stdDeviation="5"/>
<feComposite in2="hardAlpha" operator="out"/>
<feColorMatrix type="matrix" values="0 0 0 0 0.027451 0 0 0 0 0.278431 0 0 0 0 0.65098 0 0 0 0.1 0"/>
<feBlend mode="normal" in2="BackgroundImageFix" result="effect1_dropShadow_2_13"/>
<feBlend mode="normal" in="SourceGraphic" in2="effect1_dropShadow_2_13" result="shape"/>
</filter>
<filter id="filter2_d_2_13" x="645.788" y="115.087" width="70.9879" height="78.0107" filterUnits="userSpaceOnUse" color-interpolation-filters="sRGB">
<feFlood flood-opacity="0" result="BackgroundImageFix"/>
<feColorMatrix in="SourceAlpha" type="matrix" values="0 0 0 0 0 0 0 0 0 0 0 0 0 0 0 0 0 0 127 0" result="hardAlpha"/>
<feOffset dx="2" dy="3"/>
<feGaussianBlur stdDeviation="5"/>
<feComposite in2="hardAlpha" operator="out"/>
<feColorMatrix type="matrix" values="0 0 0 0 0.027451 0 0 0 0 0.278431 0 0 0 0 0.65098 0 0 0 0.1 0"/>
<feBlend mode="normal" in2="BackgroundImageFix" result="effect1_dropShadow_2_13"/>
<feBlend mode="normal" in="SourceGraphic" in2="effect1_dropShadow_2_13" result="shape"/>
</filter>
<filter id="filter3_d_2_13" x="586.424" y="115.087" width="68.4641" height="78.0472" filterUnits="userSpaceOnUse" color-interpolation-filters="sRGB">
<feFlood flood-opacity="0" result="BackgroundImageFix"/>
<feColorMatrix in="SourceAlpha" type="matrix" values="0 0 0 0 0 0 0 0 0 0 0 0 0 0 0 0 0 0 127 0" result="hardAlpha"/>
<feOffset dx="2" dy="3"/>
<feGaussianBlur stdDeviation="5"/>
<feComposite in2="hardAlpha" operator="out"/>
<feColorMatrix type="matrix" values="0 0 0 0 0.027451 0 0 0 0 0.278431 0 0 0 0 0.65098 0 0 0 0.1 0"/>
<feBlend mode="normal" in2="BackgroundImageFix" result="effect1_dropShadow_2_13"/>
<feBlend mode="normal" in="SourceGraphic" in2="effect1_dropShadow_2_13" result="shape"/>
</filter>
<filter id="filter4_d_2_13" x="524.682" y="115.087" width="73.0362" height="97.9815" filterUnits="userSpaceOnUse" color-interpolation-filters="sRGB">
<feFlood flood-opacity="0" result="BackgroundImageFix"/>
<feColorMatrix in="SourceAlpha" type="matrix" values="0 0 0 0 0 0 0 0 0 0 0 0 0 0 0 0 0 0 127 0" result="hardAlpha"/>
<feOffset dx="2" dy="3"/>
<feGaussianBlur stdDeviation="5"/>
<feComposite in2="hardAlpha" operator="out"/>
<feColorMatrix type="matrix" values="0 0 0 0 0.027451 0 0 0 0 0.278431 0 0 0 0 0.65098 0 0 0 0.1 0"/>
<feBlend mode="normal" in2="BackgroundImageFix" result="effect1_dropShadow_2_13"/>
<feBlend mode="normal" in="SourceGraphic" in2="effect1_dropShadow_2_13" result="shape"/>
</filter>
<filter id="filter5_d_2_13" x="465.666" y="115.087" width="68.0984" height="78.0107" filterUnits="userSpaceOnUse" color-interpolation-filters="sRGB">
<feFlood flood-opacity="0" result="BackgroundImageFix"/>
<feColorMatrix in="SourceAlpha" type="matrix" values="0 0 0 0 0 0 0 0 0 0 0 0 0 0 0 0 0 0 127 0" result="hardAlpha"/>
<feOffset dx="2" dy="3"/>
<feGaussianBlur stdDeviation="5"/>
<feComposite in2="hardAlpha" operator="out"/>
<feColorMatrix type="matrix" values="0 0 0 0 0.027451 0 0 0 0 0.278431 0 0 0 0 0.65098 0 0 0 0.1 0"/>
<feBlend mode="normal" in2="BackgroundImageFix" result="effect1_dropShadow_2_13"/>
<feBlend mode="normal" in="SourceGraphic" in2="effect1_dropShadow_2_13" result="shape"/>
</filter>
<filter id="filter6_d_2_13" x="406.375" y="115.087" width="68.4641" height="78.0472" filterUnits="userSpaceOnUse" color-interpolation-filters="sRGB">
<feFlood flood-opacity="0" result="BackgroundImageFix"/>
<feColorMatrix in="SourceAlpha" type="matrix" values="0 0 0 0 0 0 0 0 0 0 0 0 0 0 0 0 0 0 127 0" result="hardAlpha"/>
<feOffset dx="2" dy="3"/>
<feGaussianBlur stdDeviation="5"/>
<feComposite in2="hardAlpha" operator="out"/>
<feColorMatrix type="matrix" values="0 0 0 0 0.027451 0 0 0 0 0.278431 0 0 0 0 0.65098 0 0 0 0.1 0"/>
<feBlend mode="normal" in2="BackgroundImageFix" result="effect1_dropShadow_2_13"/>
<feBlend mode="normal" in="SourceGraphic" in2="effect1_dropShadow_2_13" result="shape"/>
</filter>
<filter id="filter7_d_2_13" x="382.152" y="97.0909" width="33.2408" height="94.9091" filterUnits="userSpaceOnUse" color-interpolation-filters="sRGB">
<feFlood flood-opacity="0" result="BackgroundImageFix"/>
<feColorMatrix in="SourceAlpha" type="matrix" values="0 0 0 0 0 0 0 0 0 0 0 0 0 0 0 0 0 0 127 0" result="hardAlpha"/>
<feOffset dx="2" dy="3"/>
<feGaussianBlur stdDeviation="5"/>
<feComposite in2="hardAlpha" operator="out"/>
<feColorMatrix type="matrix" values="0 0 0 0 0.027451 0 0 0 0 0.278431 0 0 0 0 0.65098 0 0 0 0.1 0"/>
<feBlend mode="normal" in2="BackgroundImageFix" result="effect1_dropShadow_2_13"/>
<feBlend mode="normal" in="SourceGraphic" in2="effect1_dropShadow_2_13" result="shape"/>
</filter>
<filter id="filter8_d_2_13" x="337.574" y="102.358" width="53.3214" height="90.4221" filterUnits="userSpaceOnUse" color-interpolation-filters="sRGB">
<feFlood flood-opacity="0" result="BackgroundImageFix"/>
<feColorMatrix in="SourceAlpha" type="matrix" values="0 0 0 0 0 0 0 0 0 0 0 0 0 0 0 0 0 0 127 0" result="hardAlpha"/>
<feOffset dx="2" dy="3"/>
<feGaussianBlur stdDeviation="5"/>
<feComposite in2="hardAlpha" operator="out"/>
<feColorMatrix type="matrix" values="0 0 0 0 0.027451 0 0 0 0 0.278431 0 0 0 0 0.65098 0 0 0 0.1 0"/>
<feBlend mode="normal" in2="BackgroundImageFix" result="effect1_dropShadow_2_13"/>
<feBlend mode="normal" in="SourceGraphic" in2="effect1_dropShadow_2_13" result="shape"/>
</filter>
<filter id="filter9_d_2_13" x="266.524" y="97.0909" width="89.5323" height="94.9091" filterUnits="userSpaceOnUse" color-interpolation-filters="sRGB">
<feFlood flood-opacity="0" result="BackgroundImageFix"/>
<feColorMatrix in="SourceAlpha" type="matrix" values="0 0 0 0 0 0 0 0 0 0 0 0 0 0 0 0 0 0 127 0" result="hardAlpha"/>
<feOffset dx="2" dy="3"/>
<feGaussianBlur stdDeviation="5"/>
<feComposite in2="hardAlpha" operator="out"/>
<feColorMatrix type="matrix" values="0 0 0 0 0.027451 0 0 0 0 0.278431 0 0 0 0 0.65098 0 0 0 0.1 0"/>
<feBlend mode="normal" in2="BackgroundImageFix" result="effect1_dropShadow_2_13"/>
<feBlend mode="normal" in="SourceGraphic" in2="effect1_dropShadow_2_13" result="shape"/>
</filter>
<clipPath id="clip0_2_13">
<rect width="779" height="288" fill="white"/>
</clipPath>
</defs>
</svg>
