<svg xmlns="http://www.w3.org/2000/svg" viewBox="0 0 64 64" role="img" aria-label="Atlaspack minimalist bundle logo">
  <defs>
    <style>
      .deep{stroke:#0052CC;fill:none}
      .accent{stroke:#2684FF;fill:none}
    </style>
  </defs>
  <!-- central bundle -->
  <rect x="22" y="22" width="20" height="20" rx="4" class="deep" stroke-width="3"/>
  <!-- connections -->
  <path d="M32 22 L32 10" class="accent" stroke-width="2.5" stroke-linecap="round"/>
  <path d="M32 42 L32 54" class="accent" stroke-width="2.5" stroke-linecap="round"/>
  <path d="M22 32 L10 32" class="accent" stroke-width="2.5" stroke-linecap="round"/>
  <path d="M42 32 L54 32" class="accent" stroke-width="2.5" stroke-linecap="round"/>
  <!-- diagonal connections -->
  <path d="M26 26 L16 16" class="accent" stroke-width="2.5" stroke-linecap="round"/>
  <path d="M38 26 L48 16" class="accent" stroke-width="2.5" stroke-linecap="round"/>
  <path d="M26 38 L16 48" class="accent" stroke-width="2.5" stroke-linecap="round"/>
  <path d="M38 38 L48 48" class="accent" stroke-width="2.5" stroke-linecap="round"/>
  <!-- nodes -->
  <circle cx="32" cy="10" r="2.5" fill="#0052CC"/>
  <circle cx="32" cy="54" r="2.5" fill="#0052CC"/>
  <circle cx="10" cy="32" r="2.5" fill="#0052CC"/>
  <circle cx="54" cy="32" r="2.5" fill="#0052CC"/>
  <circle cx="16" cy="16" r="2.5" fill="#0052CC"/>
  <circle cx="48" cy="16" r="2.5" fill="#0052CC"/>
  <circle cx="16" cy="48" r="2.5" fill="#0052CC"/>
  <circle cx="48" cy="48" r="2.5" fill="#0052CC"/>
</svg>