<svg width="120" height="120" viewBox="0 0 120 120" xmlns="http://www.w3.org/2000/svg">
  <!-- Modular building blocks concept -->
  <defs>
    <linearGradient id="modGrad1" x1="0%" y1="0%" x2="100%" y2="100%">
      <stop offset="0%" style="stop-color:#0052CC;stop-opacity:1" />
      <stop offset="100%" style="stop-color:#0065FF;stop-opacity:1" />
    </linearGradient>
    <linearGradient id="modGrad2" x1="0%" y1="0%" x2="100%" y2="100%">
      <stop offset="0%" style="stop-color:#FF5630;stop-opacity:1" />
      <stop offset="100%" style="stop-color:#FF8F73;stop-opacity:1" />
    </linearGradient>
    <linearGradient id="modGrad3" x1="0%" y1="0%" x2="100%" y2="100%">
      <stop offset="0%" style="stop-color:#36B37E;stop-opacity:1" />
      <stop offset="100%" style="stop-color:#57D9A3;stop-opacity:1" />
    </linearGradient>
  </defs>
  
  <!-- Container outline -->
  <rect x="15" y="15" width="90" height="90" rx="8" fill="none" stroke="#E3E8F0" stroke-width="2" opacity="0.4"/>
  
  <!-- Large central module (main bundle) -->
  <rect x="35" y="35" width="50" height="50" rx="6" fill="url(#modGrad1)" opacity="0.9"/>
  
  <!-- Smaller modules being bundled -->
  <rect x="20" y="20" width="20" height="20" rx="3" fill="url(#modGrad2)" opacity="0.8"/>
  <rect x="80" y="20" width="20" height="20" rx="3" fill="url(#modGrad3)" opacity="0.8"/>
  <rect x="20" y="80" width="20" height="20" rx="3" fill="url(#modGrad3)" opacity="0.8"/>
  <rect x="80" y="80" width="20" height="20" rx="3" fill="url(#modGrad2)" opacity="0.8"/>
  
  <!-- Connection lines showing bundling process -->
  <path d="M 30 30 Q 45 45 50 50" stroke="#0052CC" stroke-width="2" fill="none" opacity="0.6"/>
  <path d="M 90 30 Q 75 45 70 50" stroke="#0052CC" stroke-width="2" fill="none" opacity="0.6"/>
  <path d="M 30 90 Q 45 75 50 70" stroke="#0052CC" stroke-width="2" fill="none" opacity="0.6"/>
  <path d="M 90 90 Q 75 75 70 70" stroke="#0052CC" stroke-width="2" fill="none" opacity="0.6"/>
  
  <!-- Central connection hub -->
  <circle cx="60" cy="60" r="6" fill="#FFFFFF" stroke="url(#modGrad1)" stroke-width="2"/>
  <circle cx="60" cy="60" r="2" fill="url(#modGrad1)"/>
</svg>