<svg width="120" height="120" viewBox="0 0 120 120" xmlns="http://www.w3.org/2000/svg">
  <defs>
    <linearGradient id="primary" x1="0%" y1="0%" x2="100%" y2="100%">
      <stop offset="0%" style="stop-color:#0052CC;stop-opacity:1" />
      <stop offset="100%" style="stop-color:#0065FF;stop-opacity:1" />
    </linearGradient>
    <linearGradient id="accent" x1="0%" y1="0%" x2="100%" y2="100%">
      <stop offset="0%" style="stop-color:#36B37E;stop-opacity:1" />
      <stop offset="100%" style="stop-color:#57D9A3;stop-opacity:1" />
    </linearGradient>
  </defs>
  
  <!-- Central hub representing the bundler core -->
  <circle cx="60" cy="60" r="18" fill="url(#primary)"/>
  
  <!-- Surrounding modules being bundled -->
  <circle cx="60" cy="25" r="8" fill="url(#accent)" opacity="0.9"/>
  <circle cx="95" cy="60" r="8" fill="url(#accent)" opacity="0.8"/>
  <circle cx="60" cy="95" r="8" fill="url(#accent)" opacity="0.7"/>
  <circle cx="25" cy="60" r="8" fill="url(#accent)" opacity="0.6"/>
  
  <!-- Diagonal modules -->
  <circle cx="85" cy="35" r="6" fill="url(#accent)" opacity="0.5"/>
  <circle cx="85" cy="85" r="6" fill="url(#accent)" opacity="0.4"/>
  <circle cx="35" cy="85" r="6" fill="url(#accent)" opacity="0.3"/>
  <circle cx="35" cy="35" r="6" fill="url(#accent)" opacity="0.2"/>
  
  <!-- Connection lines showing bundling flow -->
  <line x1="60" y1="33" x2="60" y2="42" stroke="url(#primary)" stroke-width="2" opacity="0.7"/>
  <line x1="87" y1="60" x2="78" y2="60" stroke="url(#primary)" stroke-width="2" opacity="0.7"/>
  <line x1="60" y1="87" x2="60" y2="78" stroke="url(#primary)" stroke-width="2" opacity="0.7"/>
  <line x1="33" y1="60" x2="42" y2="60" stroke="url(#primary)" stroke-width="2" opacity="0.7"/>
  
  <!-- Diagonal connections -->
  <line x1="79" y1="41" x2="72" y2="48" stroke="url(#primary)" stroke-width="1.5" opacity="0.5"/>
  <line x1="79" y1="79" x2="72" y2="72" stroke="url(#primary)" stroke-width="1.5" opacity="0.5"/>
  <line x1="41" y1="79" x2="48" y2="72" stroke="url(#primary)" stroke-width="1.5" opacity="0.5"/>
  <line x1="41" y1="41" x2="48" y2="48" stroke="url(#primary)" stroke-width="1.5" opacity="0.5"/>
</svg>