<svg width="120" height="120" viewBox="0 0 120 120" xmlns="http://www.w3.org/2000/svg">
  <defs>
    <linearGradient id="atlasGradient" x1="0%" y1="0%" x2="100%" y2="100%">
      <stop offset="0%" style="stop-color:#0052CC;stop-opacity:1" />
      <stop offset="100%" style="stop-color:#0065FF;stop-opacity:1" />
    </linearGradient>
    <linearGradient id="packGradient" x1="0%" y1="0%" x2="100%" y2="100%">
      <stop offset="0%" style="stop-color:#36B37E;stop-opacity:1" />
      <stop offset="100%" style="stop-color:#00875A;stop-opacity:1" />
    </linearGradient>
  </defs>
  
  <!-- Main Atlas Circle -->
  <circle cx="60" cy="60" r="45" fill="url(#atlasGradient)" stroke="none"/>
  
  <!-- Atlas Grid Lines -->
  <path d="M 15 60 Q 60 30 105 60" stroke="white" stroke-width="1.5" fill="none" opacity="0.6"/>
  <path d="M 15 60 Q 60 90 105 60" stroke="white" stroke-width="1.5" fill="none" opacity="0.6"/>
  <path d="M 60 15 Q 30 60 60 105" stroke="white" stroke-width="1.5" fill="none" opacity="0.6"/>
  <path d="M 60 15 Q 90 60 60 105" stroke="white" stroke-width="1.5" fill="none" opacity="0.6"/>
  
  <!-- Bundling Elements - Small geometric shapes -->
  <rect x="25" y="25" width="8" height="8" fill="url(#packGradient)" rx="2" transform="rotate(15 29 29)"/>
  <rect x="85" y="30" width="6" height="6" fill="url(#packGradient)" rx="1" transform="rotate(-20 88 33)"/>
  <rect x="30" y="85" width="7" height="7" fill="url(#packGradient)" rx="1.5" transform="rotate(25 33.5 88.5)"/>
  <rect x="80" y="80" width="9" height="9" fill="url(#packGradient)" rx="2" transform="rotate(-15 84.5 84.5)"/>
  
  <!-- Central Connection Point -->
  <circle cx="60" cy="60" r="4" fill="white" opacity="0.9"/>
</svg>