<svg width="120" height="120" viewBox="0 0 120 120" xmlns="http://www.w3.org/2000/svg">
  <defs>
    <linearGradient id="letterGradient" x1="0%" y1="0%" x2="100%" y2="100%">
      <stop offset="0%" style="stop-color:#0052CC;stop-opacity:1" />
      <stop offset="100%" style="stop-color:#0065FF;stop-opacity:1" />
    </linearGradient>
    <linearGradient id="arrowGradient" x1="0%" y1="0%" x2="100%" y2="0%">
      <stop offset="0%" style="stop-color:#36B37E;stop-opacity:1" />
      <stop offset="100%" style="stop-color:#00875A;stop-opacity:1" />
    </linearGradient>
    <linearGradient id="accentGradient" x1="0%" y1="0%" x2="100%" y2="100%">
      <stop offset="0%" style="stop-color:#FFAB00;stop-opacity:1" />
      <stop offset="100%" style="stop-color:#FF8B00;stop-opacity:1" />
    </linearGradient>
  </defs>
  
  <!-- Stylized "A" for Atlas -->
  <path d="M 35 95 L 60 25 L 85 95 L 75 95 L 70 80 L 50 80 L 45 95 Z M 55 65 L 65 65 L 60 50 Z" 
        fill="url(#letterGradient)" 
        stroke="none"/>
  
  <!-- Performance Arrow/Speed Lines -->
  <path d="M 90 45 L 105 50 L 90 55 Z" 
        fill="url(#arrowGradient)" 
        stroke="none"/>
  
  <path d="M 85 40 L 95 40" 
        stroke="url(#arrowGradient)" 
        stroke-width="2" 
        stroke-linecap="round"/>
  
  <path d="M 85 50 L 100 50" 
        stroke="url(#arrowGradient)" 
        stroke-width="2" 
        stroke-linecap="round"/>
  
  <path d="M 85 60 L 95 60" 
        stroke="url(#arrowGradient)" 
        stroke-width="2" 
        stroke-linecap="round"/>
  
  <!-- Bundling dots/modules -->
  <circle cx="25" cy="35" r="3" fill="url(#accentGradient)" opacity="0.8"/>
  <circle cx="20" cy="50" r="2.5" fill="url(#accentGradient)" opacity="0.8"/>
  <circle cx="30" cy="65" r="2" fill="url(#accentGradient)" opacity="0.8"/>
  
  <!-- Connection lines to show bundling into the "A" -->
  <line x1="25" y1="35" x2="40" y2="45" stroke="url(#accentGradient)" stroke-width="1" opacity="0.5"/>
  <line x1="20" y1="50" x2="35" y2="55" stroke="url(#accentGradient)" stroke-width="1" opacity="0.5"/>
  <line x1="30" y1="65" x2="45" y2="70" stroke="url(#accentGradient)" stroke-width="1" opacity="0.5"/>
</svg>