<svg width="120" height="120" viewBox="0 0 120 120" xmlns="http://www.w3.org/2000/svg">
  <defs>
    <linearGradient id="primaryHex" x1="0%" y1="0%" x2="100%" y2="100%">
      <stop offset="0%" style="stop-color:#0052CC;stop-opacity:1" />
      <stop offset="100%" style="stop-color:#0065FF;stop-opacity:1" />
    </linearGradient>
    <linearGradient id="secondaryHex" x1="0%" y1="0%" x2="100%" y2="100%">
      <stop offset="0%" style="stop-color:#36B37E;stop-opacity:1" />
      <stop offset="100%" style="stop-color:#00875A;stop-opacity:1" />
    </linearGradient>
    <linearGradient id="accentHex" x1="0%" y1="0%" x2="100%" y2="100%">
      <stop offset="0%" style="stop-color:#FFAB00;stop-opacity:1" />
      <stop offset="100%" style="stop-color:#FF8B00;stop-opacity:1" />
    </linearGradient>
  </defs>
  
  <!-- Central Large Hexagon -->
  <polygon points="60,25 80,37.5 80,62.5 60,75 40,62.5 40,37.5" 
           fill="url(#primaryHex)" 
           stroke="none"/>
  
  <!-- Surrounding Hexagons - Creating bundle effect -->
  <polygon points="60,75 80,87.5 80,112.5 60,125 40,112.5 40,87.5" 
           fill="url(#secondaryHex)" 
           stroke="none" 
           opacity="0.8"
           transform="scale(0.7) translate(17 -25)"/>
  
  <polygon points="60,25 80,37.5 80,62.5 60,75 40,62.5 40,37.5" 
           fill="url(#secondaryHex)" 
           stroke="none" 
           opacity="0.8"
           transform="scale(0.6) translate(-35 -10)"/>
  
  <polygon points="60,25 80,37.5 80,62.5 60,75 40,62.5 40,37.5" 
           fill="url(#secondaryHex)" 
           stroke="none" 
           opacity="0.8"
           transform="scale(0.6) translate(55 -10)"/>
  
  <polygon points="60,25 80,37.5 80,62.5 60,75 40,62.5 40,37.5" 
           fill="url(#accentHex)" 
           stroke="none" 
           opacity="0.9"
           transform="scale(0.5) translate(-50 50)"/>
  
  <polygon points="60,25 80,37.5 80,62.5 60,75 40,62.5 40,37.5" 
           fill="url(#accentHex)" 
           stroke="none" 
           opacity="0.9"
           transform="scale(0.5) translate(70 50)"/>
  
  <!-- Connection lines showing bundling -->
  <line x1="45" y1="45" x2="60" y2="50" stroke="white" stroke-width="1.5" opacity="0.6"/>
  <line x1="75" y1="45" x2="60" y2="50" stroke="white" stroke-width="1.5" opacity="0.6"/>
  <line x1="35" y1="75" x2="50" y2="65" stroke="white" stroke-width="1.5" opacity="0.6"/>
  <line x1="85" y1="75" x2="70" y2="65" stroke="white" stroke-width="1.5" opacity="0.6"/>
</svg>